<?xml version="1.0" encoding="UTF-8"?>
<svg xmlns="http://www.w3.org/2000/svg" xmlns:xlink="http://www.w3.org/1999/xlink" viewBox="0 0 425.2 141.61">
  <defs>
    <style>
      .cls-1 {
        fill: #fbad18;
      }

      .cls-1, .cls-2, .cls-3, .cls-4, .cls-5, .cls-6, .cls-7, .cls-8, .cls-9, .cls-10, .cls-11 {
        stroke-width: 0px;
      }

      .cls-1, .cls-3, .cls-4, .cls-5, .cls-6, .cls-7, .cls-8, .cls-9 {
        mix-blend-mode: multiply;
      }

      .cls-2 {
        fill: url(#linear-gradient);
      }

      .cls-3 {
        fill: url(#New_Gradient_Swatch_1);
      }

      .cls-4 {
        fill: url(#New_Gradient_Swatch_1-7);
      }

      .cls-5 {
        fill: url(#New_Gradient_Swatch_1-4);
      }

      .cls-6 {
        fill: url(#New_Gradient_Swatch_1-3);
      }

      .cls-7 {
        fill: url(#New_Gradient_Swatch_1-6);
      }

      .cls-8 {
        fill: url(#New_Gradient_Swatch_1-5);
      }

      .cls-9 {
        fill: url(#New_Gradient_Swatch_1-2);
      }

      .cls-12 {
        isolation: isolate;
      }

      .cls-10 {
        opacity: .3;
      }

      .cls-10, .cls-11 {
        fill: #fff;
      }
    </style>
    <linearGradient id="linear-gradient" x1="0" y1="70.81" x2="134.31" y2="70.81" gradientUnits="userSpaceOnUse">
      <stop offset="0" stop-color="#ffcf01"/>
      <stop offset=".5" stop-color="#febe10"/>
      <stop offset="1" stop-color="#fbad18"/>
    </linearGradient>
    <linearGradient id="New_Gradient_Swatch_1" data-name="New Gradient Swatch 1" x1="110.3" y1="103.08" x2="98.11" y2="110.81" gradientUnits="userSpaceOnUse">
      <stop offset="0" stop-color="#fbad18"/>
      <stop offset="1" stop-color="#fbad18" stop-opacity="0"/>
    </linearGradient>
    <linearGradient id="New_Gradient_Swatch_1-2" data-name="New Gradient Swatch 1" x1="116.2" y1="95.27" x2="124.85" y2="86.22" xlink:href="#New_Gradient_Swatch_1"/>
    <linearGradient id="New_Gradient_Swatch_1-3" data-name="New Gradient Swatch 1" x1="82.76" y1="93.11" x2="92.33" y2="84.59" xlink:href="#New_Gradient_Swatch_1"/>
    <linearGradient id="New_Gradient_Swatch_1-4" data-name="New Gradient Swatch 1" x1="57" y1="108.18" x2="45.33" y2="113.82" xlink:href="#New_Gradient_Swatch_1"/>
    <linearGradient id="New_Gradient_Swatch_1-5" data-name="New Gradient Swatch 1" x1="44.66" y1="79.61" x2="53.31" y2="85.91" xlink:href="#New_Gradient_Swatch_1"/>
    <linearGradient id="New_Gradient_Swatch_1-6" data-name="New Gradient Swatch 1" x1="30.94" y1="88.95" x2="32.52" y2="102.98" xlink:href="#New_Gradient_Swatch_1"/>
    <linearGradient id="New_Gradient_Swatch_1-7" data-name="New Gradient Swatch 1" x1="29.7" y1="77.11" x2="29.7" y2="61.77" xlink:href="#New_Gradient_Swatch_1"/>
  </defs>
  <g class="cls-12">
    <g id="Layer_2" data-name="Layer 2">
      <g id="Layer_1-2" data-name="Layer 1">
        <g>
          <g>
            <path class="cls-11" d="M142.49,115.78v-4.35l5.06-1.24v-34.96l-5.06-1.24v-4.35h11.36v7.72c1.78-3.28,5.5-8.61,12.16-8.61,1.42,0,2.84.27,4.08.89v6.75c-1.33-.44-2.75-.62-4.61-.62-4.79,0-9.05,3.9-11.18,7.63v26.8l5.95,1.51v4.08h-17.75Z"/>
            <path class="cls-11" d="M179.94,95.01v.18c.18,11.18,4.08,15.44,14.55,15.44,9.05,0,13.13-1.95,13.05-7.72v-.18h5.59v.18c.71,9.76-6.21,13.75-18.64,13.75-15.26,0-21.74-7.9-21.74-23.87v-.18c0-15.97,6.48-23.87,21.3-23.87s19.7,7.54,19.7,23.96v2.31h-33.81ZM179.94,89.69v.18h26.45v-.18c-.27-11-3.2-14.91-12.34-14.91s-13.84,3.99-14.11,14.91Z"/>
            <path class="cls-11" d="M237.17,68.74c13.31,0,17.93,5.24,17.93,12.42l-.09,29.02,5.06,1.24v4.35h-11.36v-7.1c-2.93,4.08-8.7,7.99-16.68,7.99s-14.29-5.15-14.29-12.96c0-15,13.49-15.71,30.53-16.06v-2.93c0-7.01-.98-10.12-11.36-10.12-3.46,0-6.83.71-9.41,1.95l-1.6,6.83h-4.7v-10.12c3.55-2.66,10.21-4.53,15.97-4.53ZM248.26,92.97c-12.25,0-23.69.18-23.69,9.41,0,5.86,3.64,8.08,8.7,8.08,6.57,0,11.71-2.75,15-8.43v-9.05Z"/>
            <path class="cls-11" d="M281.63,68.74c7.45,0,12.25,3.2,16.15,7.54v-19.7l-5.06-1.24v-4.35h11.8v59.19l5.06,1.24v4.35h-11.36v-7.1c-3.99,4.53-8.87,7.99-16.6,7.99-12.96,0-18.46-7.72-18.46-23.87v-.18c0-16.15,5.5-23.87,18.46-23.87ZM297.78,102.29v-19.17c-3.46-5.32-8.34-8.34-14.55-8.34-9.23,0-12.69,4.79-12.69,17.84v.18c0,13.04,3.46,17.84,12.69,17.84,6.21,0,11.09-3.02,14.55-8.34Z"/>
            <path class="cls-11" d="M319.87,95.01v.18c.18,11.18,4.08,15.44,14.55,15.44,9.05,0,13.13-1.95,13.04-7.72v-.18h5.59v.18c.71,9.76-6.21,13.75-18.64,13.75-15.26,0-21.74-7.9-21.74-23.87v-.18c0-15.97,6.48-23.87,21.3-23.87s19.7,7.54,19.7,23.96v2.31h-33.81ZM319.87,89.69v.18h26.44v-.18c-.27-11-3.19-14.91-12.34-14.91s-13.84,3.99-14.11,14.91Z"/>
            <path class="cls-11" d="M357.67,115.78v-4.35l5.06-1.24v-34.96l-5.06-1.24v-4.35h11.36v7.72c1.77-3.28,5.5-8.61,12.16-8.61,1.42,0,2.84.27,4.08.89v6.75c-1.33-.44-2.75-.62-4.61-.62-4.79,0-9.05,3.9-11.18,7.63v26.8l5.95,1.51v4.08h-17.75Z"/>
            <path class="cls-11" d="M395.38,82.14c0,5.15,3.11,6.12,11.89,6.74,13.4.98,17.93,4.44,17.93,14.02,0,8.07-5.24,13.75-20.06,13.75-5.59,0-11.89-1.24-16.86-4.26v-10.38h4.7l1.69,6.74c2.48,1.15,6.12,1.95,10.92,1.95,7.81,0,12.87-2.22,12.87-7.81s-2.4-7.1-11.89-7.9c-14.2-1.24-17.93-4.79-17.93-12.87,0-8.52,5.59-13.4,18.46-13.4,7.37,0,12.6,1.69,16.42,4.08v10.56h-4.7l-1.78-6.92c-2.31-1.15-5.68-1.78-9.94-1.78-7.1,0-11.71,1.24-11.71,7.45Z"/>
          </g>
          <g>
            <path class="cls-2" d="M133.39,79.34c1.15-3.77,1.44-8.11-.36-11.58-2.16-4.21-7.05-6.38-11.79-6.45-2.16-.07-4.38.51-6.33,1.52-4.17,2.24-6.75,6.66-8.05,11.29-2.23,7.81-1.51,16.5,1.01,24.32-3.96,3.48-8.27,6.88-13.16,8.69-1.43.51-3.02,1.02-4.45.65-3.45-.87-5.18-5.21-6.19-9.12l-.07-.29s.36-.12.65-.29c2.51-1.38,4.81-3.19,6.9-5.21,5.6-5.43,9.41-12.6,10.78-20.34.65-4.2.22-8.61-2.3-11.65-2.51-3.05-6.83-3.77-10.64-2.9-4.96,1.16-8.84,4.99-11.28,9.41-3.96,7.25-5.54,16.43-4.75,25.41-2.23,1.16-4.45,2.24-6.61,3.4-.36.15-.86.44-.86.44-.37-5.79-2.44-11.58-6.47-15.64-2.87-2.82-6.47-4.78-10.35-5.72,10.79-7.67,20.64-16.72,27.75-27.87,5.89-9.27,9.85-20.49,7.69-31.13C82.64,7.1,75.59.07,67.39,0c-13.5,0-23.15,8.61-23.15,8.61-7.12,6.01-11.42,14.34-14.15,22.95-5.02,15.8-5.38,32.5-4.85,49.01-7.02,4.48-15.01,9.37-22.97,13.74-2.11,1.17-2.89,3.83-1.73,5.96.79,1.46,2.29,2.28,3.82,2.28.71,0,1.43-.18,2.09-.54,6.58-3.63,13.2-7.58,19.27-11.39.09,1.39.21,2.86.35,4.41,0,0,1.01,11.36,1.65,16.94.22,1.8.57,2.96,1.44,3.84.22.14.36.29.57.43,2.09,1.45,4.89.87,6.26-1.23.36-.58.57-1.24.65-1.88v-1.02c-1.01-8.18-1.73-16.35-2.24-24.61-.14-2.68,2.31-4.28,3.96-4.35,5.32-.22,10.93.43,14.59,3.84,4.03,3.69,4.6,9.34,4.18,14.62l-.15.07c-8.13,4.85-16.46,10-23,17.01-2.66,2.9-5.25,6.3-5.9,10.28-.65,3.88,1.04,7.35,3.7,9.76,0,0,3.66,4.08,10.11,2.5,4-.96,7.37-3.77,10.19-6.9,6.61-7.32,11.08-16.94,13.02-26.71l.07-.44.29-.14c3.17-1.81,6.44-3.48,9.67-5.14l.26.87c1.29,4.2,3.44,8.4,6.83,11.29,3.66,3.04,8.55,4.13,13.08,2.9,5.82-1.46,11.07-4.99,15.89-8.83l.89-.73c2.61,4.42,6.37,8.99,11.62,11.78.69.37,1.44.55,2.19.55,1.69,0,3.32-.92,4.17-2.52,1.21-2.31.33-5.18-1.97-6.4-4.08-2.17-6.97-6.26-8.89-9.97,2.22-2.3,4.3-4.67,6.23-7.2,3.31-4.42,6.32-9.12,7.98-14.33ZM34.04,74.78v-.07c-.14-12.09.36-24.33,3.31-36.05,1.8-7.32,4.67-14.84,9.93-20.56,4.59-5.07,10.85-8.76,17.54-8.91,4.89-.07,7.62,1.52,9.06,3.7,2.16,3.18,2.73,7.02,2.51,10.78-.43,7.96-4.17,15.5-8.91,22.01-8.7,12.02-20.78,21.29-33.43,29.1ZM40.65,132.29c-1.98.98-3.06.08-3.06.08-1.37-.98-.83-2.31-.83-2.31,2.12-6.71,17.4-16.2,17.4-16.2-6.34,15.7-13.52,18.43-13.52,18.43ZM90.27,67.66s1.64-1.16,2.79.02c0,0,.83.74.39,2.96,0,0-2.15,10.95-10.52,17.24,0,0,.12-15.05,7.34-20.22ZM115.7,90.63s-1.31-9.44,0-13.89c1.26-4.28,4.45-6.05,6.81-5.71,2.36.34,2.45,2.82,2.45,2.82,0,0,.82,4.92-9.26,16.77Z"/>
            <path class="cls-3" d="M112.07,107.42h0s0,0,0,0l-.89.73c-3.64,2.9-7.52,5.62-11.71,7.41l-4.5-8.53c4.79-1.83,9.02-5.17,12.91-8.59h0s0,0,0,0c0,0,1.52,4.47,4.2,8.98Z"/>
            <path class="cls-9" d="M128.98,88.54c-1.11,1.76-2.31,3.47-3.56,5.14-1.93,2.52-4.01,4.89-6.23,7.2-2.77-4.47-3.48-10.24-3.48-10.24,4.53-5.34,6.86-9.27,8.05-11.98l5.22,9.88Z"/>
            <path class="cls-6" d="M95.63,88.2c-1.22,1.66-2.59,3.23-4.07,4.67-2.09,2.02-4.38,3.84-6.9,5.21-.3.17-.65.29-.65.29-1.55-5.99-1.08-10.49-1.08-10.49,3.55-2.67,5.98-6.18,7.61-9.33l5.1,9.65Z"/>
            <path class="cls-1" d="M75.12,101.92c-1.56.8-3.13,1.61-4.7,2.43-1.67.88-3.33,1.77-4.97,2.71l-.29.14c1.14-4.92.72-10.56.72-10.56h0s.52-.29.86-.44c.9-.48,1.82-.95,2.74-1.42,1.28-.65,2.58-1.3,3.87-1.98,0,0,.3,3.83,1.76,9.12Z"/>
            <path class="cls-5" d="M54.17,113.86s-4.65,2.89-9.18,6.61l-1.02-10.42c4.19-3.03,8.62-5.73,13-8.35l.15-.07s.06,5.76-2.95,12.23Z"/>
            <path class="cls-8" d="M61.8,83.92l-9.36,2.65c-3.66-3.02-9.01-3.6-14.08-3.39-.46.02-.98.16-1.49.4l12.2-8.3c3.88.94,7.48,2.9,10.35,5.72.89.89,1.68,1.87,2.38,2.92Z"/>
            <path class="cls-7" d="M34.4,87.52c.33,5.32.74,10.61,1.27,15.89l-8.59,2.43c-.52-5.25-1.01-10.8-1.01-10.8-.14-1.56-.26-3.03-.35-4.41l10.44-6.63c-1.02.74-1.84,1.94-1.76,3.52Z"/>
            <path class="cls-4" d="M34.04,74.71l-8.8,5.87c-.2-6.27-.28-12.57-.01-18.83l9.13-2.58c-.31,5.17-.37,10.37-.31,15.54Z"/>
            <circle class="cls-10" cx="48.92" cy="10.56" r=".66"/>
            <circle class="cls-10" cx="80.94" cy="23.18" r=".66"/>
            <circle class="cls-10" cx="112.04" cy="73.13" r=".66"/>
            <circle class="cls-10" cx="84.23" cy="66.6" r=".66"/>
            <circle class="cls-10" cx="125.86" cy="115" r=".66"/>
            <circle class="cls-10" cx="54.78" cy="82.63" r=".66"/>
            <circle class="cls-10" cx="60.58" cy="110.68" r=".66"/>
            <circle class="cls-10" cx="91.74" cy="112.51" r=".66"/>
            <circle class="cls-10" cx="46.03" cy="134.36" r=".66"/>
            <circle class="cls-10" cx="34.83" cy="124.59" r=".66"/>
            <circle class="cls-10" cx="57.16" cy="63.32" r=".66"/>
            <circle class="cls-10" cx="4.4" cy="98.17" r=".66"/>
            <path class="cls-10" d="M6.46,97.74c-.23,0-.46-.12-.58-.34-.18-.32-.06-.72.26-.89.3-.16,30.12-16.67,48.88-32.15.28-.23.7-.19.93.09.23.28.19.7-.09.93-18.85,15.56-48.78,32.12-49.08,32.29-.1.06-.21.08-.32.08Z"/>
            <path class="cls-10" d="M61.1,109.05s-.1,0-.15-.02c-.35-.08-.58-.44-.49-.79,2-8.67.66-14.63-.8-18.1-1.57-3.71-3.59-5.39-3.61-5.41-.28-.23-.32-.65-.09-.93.23-.28.65-.32.93-.09.09.08,2.29,1.91,3.98,5.91,1.54,3.65,2.95,9.89.87,18.91-.07.3-.34.51-.64.51Z"/>
            <path class="cls-10" d="M38.62,138.4c-1.98,0-3.73-.79-5.15-2.33-1.63-1.78-2.21-4.06-1.69-6.61.39-1.88,1.24-3.23,1.28-3.28.2-.31.6-.4.91-.2.31.2.4.6.2.91-.01.02-.77,1.24-1.11,2.88-.43,2.12.04,3.94,1.38,5.41,1.59,1.74,3.63,2.29,6.05,1.65,1.89-.51,3.32-1.58,3.34-1.59.29-.22.7-.16.92.13.22.29.16.7-.13.92-.07.05-1.62,1.22-3.75,1.8-.78.21-1.53.32-2.26.32Z"/>
            <path class="cls-10" d="M124.11,114.19c-.14,0-.28-.05-.4-.14-4.42-3.43-7.85-7.61-10.21-12.43-1.88-3.85-3.09-8.11-3.57-12.67-.83-7.74.68-13.57.75-13.82.09-.35.45-.56.81-.47.35.09.56.45.47.81-.02.08-1.52,5.89-.71,13.39.47,4.39,1.64,8.5,3.45,12.21,2.27,4.63,5.57,8.65,9.82,11.94.29.22.34.64.12.92-.13.17-.32.25-.52.25Z"/>
            <path class="cls-10" d="M80.89,21.52c-.36,0-.66-.29-.66-.66,0-.03-.02-3.24-1.3-6.71-1.69-4.56-4.67-7.42-8.85-8.47-9.41-2.38-18.86,3.98-18.96,4.05-.3.21-.71.13-.92-.17s-.13-.71.17-.92c.1-.07,2.53-1.72,6.21-3.08,3.41-1.26,8.58-2.49,13.82-1.16,4.58,1.16,7.96,4.39,9.78,9.33,1.36,3.69,1.37,6.99,1.37,7.13,0,.36-.29.66-.66.66Z"/>
            <path class="cls-10" d="M89.46,113.04c-.35,0-8.46-.21-11.44-18.52-1.34-8.25-.1-14.98,1.19-19.18,1.4-4.56,3.1-7.15,3.17-7.26.2-.3.61-.38.91-.18.3.2.38.61.18.91h0s-1.68,2.57-3.02,6.96c-1.23,4.05-2.43,10.55-1.13,18.53.81,4.96,2.54,11.63,6.19,15.24,1.7,1.69,3.33,2.15,3.96,2.17.36,0,.65.3.65.66,0,.36-.29.65-.65.65h0Z"/>
          </g>
        </g>
      </g>
    </g>
  </g>
</svg>