<svg id="ea4ca610-40d0-467f-a66f-4ab81affeba6" data-name="Capa 1" xmlns="http://www.w3.org/2000/svg" viewBox="0 0 6227.39 1211.04"><defs><style>.bcbb972d-2f82-4d03-a4ad-3e9de284d019,.ea21455b-661c-44bc-9c47-1c8d95331297{fill:#fff;}.a93eee13-95d8-4b18-a29f-9cee77461d88{fill:#00d40f;}.a93eee13-95d8-4b18-a29f-9cee77461d88,.bcbb972d-2f82-4d03-a4ad-3e9de284d019{fill-rule:evenodd;}</style></defs><path class="ea21455b-661c-44bc-9c47-1c8d95331297" d="M1416.64,651.06v-42c0-36.9,4.72-71.5,13.91-103.68s24.8-60.6,47.06-84.67c21.9-24.08,51.78-42.95,89.64-57.34s85.4-21.17,142.62-21.17H1739a780.68,780.68,0,0,1,106.57,6.89,956.57,956.57,0,0,1,102.1,19.72h0v132.1c-19-5.44-38-10.16-57.34-13.91-19-3.63-38-6.9-56.49-9.08-18.63-2.54-36.41-4.35-53.23-5.44-17.18-1.09-32.18-1.45-46-1.45h0c-42,0-74.64,4-97.5,11.73s-39.8,18.63-50.32,32.91c-10.53,13.91-16.82,30.6-18.63,50.32-1.82,19.36-2.91,40.53-2.91,63.87h0c0,23.23,1.09,44.52,2.91,63.88s8,36.05,18.63,50.68c10.52,14.28,27.34,25.16,50.32,33.27,22.86,7.62,55.4,11.73,97.5,11.73h0c13.55,0,28.79-.72,46-1.81s34.72-2.9,53.23-5.08c18.63-2.54,37.62-5.81,56.49-9.68,19.36-4,38.35-8.71,57.34-13.91h0V891.8a962.87,962.87,0,0,1-102.1,19A843.05,843.05,0,0,1,1739,917.68h-29.16c-57.34,0-104.76-6.89-142.62-20.8-38-14.28-67.87-33.27-89.64-57.34a205.31,205.31,0,0,1-47.06-84.68,380.92,380.92,0,0,1-13.91-103.8Z"/><path class="ea21455b-661c-44bc-9c47-1c8d95331297" d="M2282.19,917.32h-15.37c-45.24,0-82.74-5.08-112.74-15.73-29.4-10.52-53.71-25.16-71.5-43.3a148.38,148.38,0,0,1-37.25-64.6,288.93,288.93,0,0,1-10.53-78.87h0V682.4a294.18,294.18,0,0,1,10.53-79.24c6.89-24.44,19.71-46,37.25-64.24,17.91-18.26,41.62-32.9,71.5-43.3,29.39-10.53,67.14-16.09,112.74-16.09h22.62c46,0,83.59,3.14,112.75,10.16,29.15,6.53,51.77,16.09,67.86,27.7s27.34,25.53,33.27,41.62a144.18,144.18,0,0,1,8.71,50.32h0v8a176.43,176.43,0,0,1-6.17,46.34c-4,14.63-13.55,27.33-28.79,39.07-15,11.37-37.26,20.08-66.78,26.61S2340.74,739,2289.93,739h0a669.87,669.87,0,0,1-67.14-3.15,305.85,305.85,0,0,1-58.43-11.37h0a133.56,133.56,0,0,0,5.44,31,45.29,45.29,0,0,0,18.27,23.71c8.71,6.53,21.53,11.74,37.62,15s38,5.08,65,5.08h0c13.19,0,27.34-.72,43.31-1.81s32.54-2.54,49.12-4.36c17.17-1.81,34-4.35,50.32-7.25a373.55,373.55,0,0,0,46-11h0V896.27c-14.28,3.15-29.16,6.17-46,8.71-16.33,2.18-33.63,4.36-51.05,6.53s-35.08,3.15-52.14,4c-16.57,1.45-33.14,1.81-48,1.81Zm8-336.06h0c-21.53,0-39.8,1.09-54.44,3.63s-26.61,6.17-35.68,11a56.65,56.65,0,0,0-20.81,17.9,71.25,71.25,0,0,0-10.53,24.44h0a301.52,301.52,0,0,0,50.69,9.07c18.27,1.82,39.08,2.91,62.66,2.91h0c23.71,0,42.22-1.09,55.77-2.91s23.71-4,30.24-6.89,10.53-6.17,12.1-9.68a28,28,0,0,0,2.18-11h0a41.68,41.68,0,0,0-2.18-12.46c-1.09-4.72-5.08-8.71-11.37-12.46s-15.36-6.89-27.7-9.43C2328.88,582.35,2311.82,581.26,2290.17,581.26Z"/><path class="ea21455b-661c-44bc-9c47-1c8d95331297" d="M2937,485.82V608a433,433,0,0,0-75.12-6.53h0c-43.79,0-83.11,5.44-119,16.81h0V900.87H2613.4V496h32.54l43.8,25.89c25.88-14.28,53.71-24.44,82.74-31.7,29.15-6.89,61.57-10.52,97.14-10.52h0c12.46,0,24.43.72,35.44,1.81q16.7,2.18,31.94,4.36Z"/><path class="ea21455b-661c-44bc-9c47-1c8d95331297" d="M3151.36,391.34V496.46H3276.2V609.93H3151.36V739.25a166.91,166.91,0,0,0,1.45,24.44,31.48,31.48,0,0,0,9.07,17.9c5.21,5.08,12.46,8.35,22.63,11s24.43,3.63,42.94,3.63h0a368.06,368.06,0,0,0,39.07-2.18,201.49,201.49,0,0,0,36.42-6.89h0v118.3a277.58,277.58,0,0,1-37.26,6.17,418.92,418.92,0,0,1-43.79,2.18h0c-36.9,0-67.87-3.63-93-10.52-25.53-6.9-46-17.18-61.57-30.25s-27-29.39-34.36-49.11-11-42.22-11-67.5h0v-421h32.54Z"/><path class="ea21455b-661c-44bc-9c47-1c8d95331297" d="M3432.74,496.34H3400.2v405h129.43V553.44Zm-41-132v-9.67c0-16.34,4.72-31,14.64-42.95,9.43-11.73,28.06-17.9,55-17.9h6.53c27,0,45.24,5.8,55,17.9s14.64,26.25,14.64,42.95h0v9.67c0,16.82-4.72,31-14.64,42.95-9.68,12.1-28.06,17.9-55,17.9h-6.53c-27,0-45.25-5.8-55-17.9a68.25,68.25,0,0,1-14.64-42.95Z"/><path class="ea21455b-661c-44bc-9c47-1c8d95331297" d="M3764.32,350.45V498.52A458,458,0,0,1,3823.47,485a442.72,442.72,0,0,1,67.14-5.08h0c45.24,0,82.74,5.44,112.75,16.09,29.39,10.52,53.22,24.8,71.13,43.31a149.18,149.18,0,0,1,37.25,64.23,293.53,293.53,0,0,1,10.53,79.24h0V715.3a289.57,289.57,0,0,1-10.53,78.87,151.33,151.33,0,0,1-37.25,64.6c-17.91,18.27-41.62,32.9-71.5,43.31-29.76,9.67-67.86,15.36-113.71,15.36h-22.62c-45.24,0-82.75-5.08-112.75-15.73-29.39-10.52-53.71-25.16-71.49-43.3a148.49,148.49,0,0,1-37.26-64.6,289.32,289.32,0,0,1-10.52-78.87h0V294h32.54Zm118.91,247h0c-22.62,0-43.79,1.46-63,4.72a300.86,300.86,0,0,0-55.77,13.55h0v83.11c0,13.18.72,25.52,1.81,38a62,62,0,0,0,12.46,32.54c7.26,9.08,18.63,16.33,33.63,22.26s36.9,8.71,65.33,8.71h0c28.42,0,50.68-2.9,66.41-8.71,15.73-5.44,27.34-13.18,34.72-22.26s11.37-20.08,12.46-32.54,1.81-25.16,1.81-38h0c0-13.19-.72-25.53-1.81-38s-5.08-22.86-12.1-32.05-17.9-16.82-32.54-22.26C3932.1,600.26,3910.93,597.47,3883.23,597.47Z"/><path class="ea21455b-661c-44bc-9c47-1c8d95331297" d="M4227.51,294h32.54l97.14,56.49V901.11H4227.76L4227.51,294Z"/><path class="ea21455b-661c-44bc-9c47-1c8d95331297" d="M4462.08,714.82V682.4a294.18,294.18,0,0,1,10.52-79.24,148.14,148.14,0,0,1,37.26-64.24c17.9-18.26,41.61-32.9,71.13-43.3s67.14-16.09,112.74-16.09h22.63c45.24,0,82.74,5.44,112.74,16.09,29.4,10.52,53.71,24.8,71.49,43.3a149.13,149.13,0,0,1,37.26,64.24,293.53,293.53,0,0,1,10.53,79.24h0v32.54a289.57,289.57,0,0,1-10.53,78.87,151.25,151.25,0,0,1-37.26,64.6c-17.9,18.26-41.61,32.9-71.49,43.31-29.4,10.52-67.14,15.72-112.74,15.72h-22.63c-45.24,0-82.74-5.08-112.74-15.72-29.4-10.53-53.23-25.17-71.13-43.31a148.49,148.49,0,0,1-37.26-64.6,296.94,296.94,0,0,1-10.52-79Zm129.43-16h0c0,13.18.73,25.52,1.82,38a62,62,0,0,0,12.46,32.54c7.26,9.08,18.63,16.33,33.63,22.26s36.89,8.71,65.32,8.71h0c28.07,0,49.48-2.9,65.33-8.71,15.36-5.44,26.61-13.18,34-22.26a56.71,56.71,0,0,0,12.46-32.54c1.09-12.46,1.81-25.16,1.81-38h0c0-13.19-.72-25.53-1.81-38s-5.08-22.86-12.46-32.05-18.63-16.82-34-22.26c-15.37-5.81-37.26-8.71-65.33-8.71h0c-28.43,0-50.32,2.9-65.32,8.71-15.36,5.8-26.25,13.18-33.63,22.26s-11.37,19.71-12.46,32.05A321.5,321.5,0,0,0,4591.51,698.85Z"/><path class="ea21455b-661c-44bc-9c47-1c8d95331297" d="M5045,714.82V682.4a294.18,294.18,0,0,1,10.53-79.24,147.94,147.94,0,0,1,37.26-64.24c17.9-18.26,41.61-32.9,71.13-43.3s67.14-16.09,112.74-16.09h22.87a728.72,728.72,0,0,1,85.4,5.08,803.8,803.8,0,0,1,81.29,15h0V620.34a579.5,579.5,0,0,0-90.48-18.27c-30.25-3.63-57-5.44-79.6-5.44h0c-30.24,0-53.23,2.54-69.92,7.62s-28.43,12.1-36.05,21.17c-7.62,8.71-12.1,19.72-13.55,32.06-1.09,12.46-1.82,25.88-1.82,40.52h0c0,14.64.73,28.07,1.82,40.53,1.45,12.46,5.81,22.86,13.55,32.05,7.62,8.71,19.72,15.73,36.05,20.81s39.8,7.62,69.92,7.62h0c22.62,0,49.11-1.81,79.6-5.08a558.12,558.12,0,0,0,90.48-18.27h0V896A674.12,674.12,0,0,1,5385,911c-27.7,3.14-56.49,6.17-85.77,6.17h-22.86c-45.24,0-82.75-5.08-112.75-15.73-29.39-10.52-53.22-25.16-71.13-43.3a147.82,147.82,0,0,1-37.26-64.6A309.2,309.2,0,0,1,5045,714.82Z"/><path class="ea21455b-661c-44bc-9c47-1c8d95331297" d="M6044.85,901.23H5920l-90.36-142.62H5699.73V901.23H5570.29V294h32.54L5700,350.45V638.6h129.8L5920.26,496H6045.1v32.54l-107.55,170,107.55,170-.25,32.78Z"/><path class="a93eee13-95d8-4b18-a29f-9cee77461d88" d="M751.83,821.27H590.94c-131.74,0-238.55-106.94-238.55-238.55V555c0-131.73,106.94-238.55,238.55-238.55H751.83c131.74,0,238.56,106.94,238.56,238.55v27.71C990.39,714.82,883.45,821.27,751.83,821.27Z"/><path class="bcbb972d-2f82-4d03-a4ad-3e9de284d019" d="M669.87,1077.39c325.65-242.31,391.26-440.28,421.77-725.34,32.23-301.1-912.3-301.1-880.07,0,28.13,262.67,96.11,483.08,421.8,725.36C650.08,1087.06,651,1088.32,669.87,1077.39ZM491,542.62l128.05,128L843.3,422.11,904,476.73,622.06,789.23,433.23,600.39Z"/><path class="ea21455b-661c-44bc-9c47-1c8d95331297" d="M1302.49,1211H0V0H1302.49Zm-1242-60.49H1242V60.49H60.49Z"/><path class="ea21455b-661c-44bc-9c47-1c8d95331297" d="M6144.3,262.14a81.77,81.77,0,1,0,81.77,81.77A81.88,81.88,0,0,0,6144.3,262.14Zm0,16.35a65.42,65.42,0,1,1-65.41,65.42A65.29,65.29,0,0,1,6144.3,278.49Zm-24.53,32.71v65.41h13.48V352.66H6144l12.26,23.95h14.45V376l-14.14-26.73a24.36,24.36,0,0,0,4.85-2.88,16.82,16.82,0,0,0,6-9,23.52,23.52,0,0,0,.82-6.44,20.37,20.37,0,0,0-1.67-8.54,16.42,16.42,0,0,0-4.75-6.17,21.22,21.22,0,0,0-7.61-3.78,36.78,36.78,0,0,0-10.15-1.28Zm13.5,10.92h10.82c3.63,0,6.32.87,8.07,2.64a9.89,9.89,0,0,1,2.62,7.28,11.19,11.19,0,0,1-.67,4,8.31,8.31,0,0,1-2,3.05,8.82,8.82,0,0,1-3.32,2,14.19,14.19,0,0,1-4.64.7h-10.86Z"/></svg>